HIERARCHY
ROOT Hips
{
	OFFSET -0.001795 -0.223333 0.028219
	CHANNELS 6 Xposition Yposition Zposition Zrotation Yrotation Xrotation 
	JOINT LeftUpLeg
	{
		OFFSET 0.069520 -0.091406 -0.006815
		CHANNELS 3 Zrotation Yrotation Xrotation
		JOINT LeftLeg
		{
			OFFSET 0.034277 -0.375199 -0.004496
			CHANNELS 3 Zrotation Yrotation Xrotation
			JOINT LeftFoot
			{
				OFFSET -0.013596 -0.397961 -0.043693
				CHANNELS 3 Zrotation Yrotation Xrotation
				JOINT LeftToe
				{
					OFFSET 0.026358 -0.055791 0.119288
					CHANNELS 3 Zrotation Yrotation Xrotation
					End Site
					{
						OFFSET 0.000000 0.000000 0.000000
					}
				}
			}
		}
	}
	JOINT RightUpLeg
	{
		OFFSET -0.067670 -0.090522 -0.004320
		CHANNELS 3 Zrotation Yrotation Xrotation
		JOINT RightLeg
		{
			OFFSET -0.038290 -0.382569 -0.008850
			CHANNELS 3 Zrotation Yrotation Xrotation
			JOINT RightFoot
			{
				OFFSET 0.015774 -0.398415 -0.042312
				CHANNELS 3 Zrotation Yrotation Xrotation
				JOINT RightToe
				{
					OFFSET -0.025372 -0.048144 0.123348
					CHANNELS 3 Zrotation Yrotation Xrotation
					End Site
					{
						OFFSET 0.000000 0.000000 0.000000
					}
				}
			}
		}
	}
	JOINT Spine
	{
		OFFSET -0.002533 0.108963 -0.026696
		CHANNELS 3 Zrotation Yrotation Xrotation
		JOINT Spine1
		{
			OFFSET 0.005487 0.135180 0.001092
			CHANNELS 3 Zrotation Yrotation Xrotation
			JOINT Spine2
			{
				OFFSET 0.001457 0.052922 0.025425
				CHANNELS 3 Zrotation Yrotation Xrotation
				JOINT Neck
				{
					OFFSET -0.002778 0.213870 -0.042857
					CHANNELS 3 Zrotation Yrotation Xrotation
					JOINT Head
					{
						OFFSET 0.005152 0.064970 0.051349
						CHANNELS 3 Zrotation Yrotation Xrotation
						End Site
						{
							OFFSET 0.000000 0.000000 0.000000
						}
					}
				}
				JOINT LeftShoulder
				{
					OFFSET 0.078845 0.121749 -0.034090
					CHANNELS 3 Zrotation Yrotation Xrotation
					JOINT LeftArm
					{
						OFFSET 0.090977 0.030469 -0.008868
						CHANNELS 3 Zrotation Yrotation Xrotation
						JOINT LeftForeArm
						{
							OFFSET 0.259612 -0.012772 -0.027456
							CHANNELS 3 Zrotation Yrotation Xrotation
							JOINT LeftHand
							{
								OFFSET 0.249234 0.008986 -0.001171
								CHANNELS 3 Zrotation Yrotation Xrotation
								End Site
								{
									OFFSET 0.000000 0.000000 0.000000
								}
							}
						}
					}
				}
				JOINT RightShoulder
				{
					OFFSET -0.081759 0.118833 -0.038615
					CHANNELS 3 Zrotation Yrotation Xrotation
					JOINT RightArm
					{
						OFFSET -0.096012 0.032551 -0.009143
						CHANNELS 3 Zrotation Yrotation Xrotation
						JOINT RightForeArm
						{
							OFFSET -0.253742 -0.013329 -0.021401
							CHANNELS 3 Zrotation Yrotation Xrotation
							JOINT RightHand
							{
								OFFSET -0.255298 0.007772 -0.005559
								CHANNELS 3 Zrotation Yrotation Xrotation
								End Site
								{
									OFFSET 0.000000 0.000000 0.000000
								}
							}
						}
					}
				}
			}
		}
	}
}
MOTION
Frames: 18
Frame Time: 0.050000
-0.023908 0.943096 -0.045472 -3.286299 20.593762 3.780906 4.486714 -0.448248 -3.874804 2.397310 -0.112634 -1.305000 1.314319 7.229367 8.201329 0.000000 0.000000 0.000000 0.967675 0.918969 -9.151480 -2.709688 0.503286 3.089391 0.958242 0.609668 8.408078 0.000000 0.000000 0.000000 -1.690271 0.011224 0.408439 -0.315297 0.304502 -2.259225 2.025254 0.670277 2.932355 1.354833 0.818050 -11.259080 0.000000 0.000000 0.000000 -18.747349 -0.008853 -4.582285 -37.518719 1.710741 -4.031746 -86.410121 -56.114889 51.929062 0.000000 0.000000 0.000000 18.490965 4.106343 3.319733 28.265079 12.152394 -1.116334 148.601660 68.674509 146.478030 0.000000 0.000000 0.000000 
-0.023459 0.942912 -0.042241 -3.271982 20.890873 4.266393 4.557691 -0.466425 -4.057476 2.372872 -0.092460 -1.647188 1.186247 7.043670 8.207053 0.000000 0.000000 0.000000 0.909481 0.916519 -9.196880 -2.548946 0.461007 2.657133 0.824006 0.375948 8.335195 0.000000 0.000000 0.000000 -1.747122 0.023296 -0.030440 -0.324446 0.311865 -2.323793 1.735978 0.358160 2.718574 1.467237 0.693718 -10.972985 0.000000 0.000000 0.000000 -18.302668 -0.896695 -4.020983 -38.088078 0.822368 -3.841714 -85.153361 -56.656118 51.438848 0.000000 0.000000 0.000000 17.867501 4.155052 3.261021 27.528532 11.932033 -1.127316 144.459437 68.840832 140.781495 0.000000 0.000000 0.000000 
-0.022836 0.942929 -0.039383 -3.402870 21.056729 4.520417 4.661383 -0.464504 -3.845843 2.505677 -0.066482 -2.326330 1.086730 6.938183 8.307925 0.000000 0.000000 0.000000 1.143264 0.932860 -9.172866 -2.671838 0.469842 2.395394 0.746813 0.237264 8.333487 0.000000 0.000000 0.000000 -1.766667 0.028289 -0.219645 -0.354741 0.345535 -2.577771 1.900072 -0.217956 2.497303 1.188650 0.785483 -10.607122 0.000000 0.000000 0.000000 -18.665731 -1.352138 -3.767937 -38.511617 0.253302 -3.724609 -84.402802 -56.681289 51.072809 0.000000 0.000000 0.000000 17.313950 4.499061 3.267894 26.303736 11.976433 -1.059256 138.340284 70.600604 133.537377 0.000000 0.000000 0.000000 
-0.022060 0.942882 -0.037146 -3.397164 21.044632 4.895783 4.673751 -0.472335 -3.924314 2.484110 -0.050534 -2.631144 1.091773 6.975716 8.371345 0.000000 0.000000 0.000000 1.187393 0.937024 -9.180186 -2.762627 0.465124 1.949628 0.752553 0.249703 8.358794 0.000000 0.000000 0.000000 -1.794856 0.036170 -0.542501 -0.265096 0.318523 -2.746095 1.685838 -0.228234 2.314474 1.012829 0.870771 -10.386971 0.000000 0.000000 0.000000 -18.528892 -1.810992 -3.527717 -39.291732 -0.168487 -3.674312 -82.135021 -56.779714 49.352290 0.000000 0.000000 0.000000 16.510987 4.983073 3.461296 24.954982 12.315613 -0.976477 134.174491 73.428003 130.517296 0.000000 0.000000 0.000000 
-0.021231 0.942758 -0.035589 -3.398466 20.678323 5.134033 4.637388 -0.466053 -3.830226 2.475152 -0.037203 -2.922377 1.268681 7.262660 8.429792 0.000000 0.000000 0.000000 1.177170 0.944641 -9.265141 -2.793924 0.461383 1.769191 0.905150 0.543908 8.324674 0.000000 0.000000 0.000000 -1.566145 0.039372 -0.761203 -0.452372 0.415268 -2.973153 1.708545 0.003689 2.103142 1.237778 0.701454 -10.220592 0.000000 0.000000 0.000000 -18.522015 -1.924468 -3.486948 -39.865635 -0.023712 -3.766380 -81.099036 -56.569539 48.317853 0.000000 0.000000 0.000000 15.571505 5.381405 3.581118 23.124699 13.814723 -0.724286 128.973189 76.939997 127.168872 0.000000 0.000000 0.000000 
-0.020466 0.942601 -0.034543 -3.342744 20.200593 5.389265 4.387981 -0.457403 -3.903265 2.706263 -0.049963 -2.930670 1.512520 7.636739 8.452714 0.000000 0.000000 0.000000 1.188465 0.947802 -9.263427 -2.993067 0.470381 1.358707 1.110681 0.928626 8.338769 0.000000 0.000000 0.000000 -1.367700 0.047653 -1.224856 -0.737417 0.509468 -2.654295 1.763042 0.431303 1.637632 1.099094 0.665200 -9.306965 0.000000 0.000000 0.000000 -18.444531 -1.995282 -3.466589 -40.476175 0.343837 -3.918192 -79.030457 -56.278484 46.428632 0.000000 0.000000 0.000000 14.492741 6.360164 3.984467 21.571984 16.021382 -0.387503 119.958621 80.825686 120.374673 0.000000 0.000000 0.000000 
-0.019981 0.942449 -0.033944 -3.262779 19.794677 5.567973 4.240829 -0.447517 -3.852862 2.729675 -0.044598 -3.085127 1.701848 7.940214 8.510548 0.000000 0.000000 0.000000 1.230023 0.967999 -9.454554 -3.273149 0.511567 1.414878 1.261853 1.228911 8.246768 0.000000 0.000000 0.000000 -1.240635 0.054023 -1.563966 -0.986298 0.618905 -2.711960 1.922470 0.737081 1.584709 1.168991 0.561457 -8.890550 0.000000 0.000000 0.000000 -18.584455 -1.833231 -3.591975 -40.610255 0.765748 -4.057739 -76.402751 -56.015569 44.281355 0.000000 0.000000 0.000000 13.559487 7.409310 4.428439 20.022506 19.175745 -0.002385 93.371111 84.219468 95.722979 0.000000 0.000000 0.000000 
-0.019854 0.942209 -0.033667 -3.022549 19.472265 5.693584 4.177372 -0.444060 -3.857110 2.342121 -0.027530 -3.021663 1.853887 8.160707 8.512024 0.000000 0.000000 0.000000 1.183587 0.968009 -9.482888 -3.660487 0.561475 1.355879 1.369619 1.460996 8.095717 0.000000 0.000000 0.000000 -1.282591 0.057461 -1.694650 -1.143502 0.666371 -2.453064 2.112887 1.201471 1.216318 1.176713 0.504605 -8.483744 0.000000 0.000000 0.000000 -18.665879 -1.713053 -3.730673 -40.848237 0.965070 -4.105875 -73.606368 -55.675715 41.921126 0.000000 0.000000 0.000000 12.785544 8.502063 4.919532 18.965419 22.502933 0.387039 43.533659 83.952507 47.072776 0.000000 0.000000 0.000000 
-0.020071 0.942396 -0.033824 -3.066237 19.654437 5.589389 4.244887 -0.452021 -3.949329 2.348603 -0.038910 -2.772210 1.774624 8.031585 8.476271 0.000000 0.000000 0.000000 1.255329 0.963363 -9.365708 -3.674393 0.563068 1.331781 1.301830 1.320978 8.163990 0.000000 0.000000 0.000000 -1.269124 0.056537 -1.676404 -1.238139 0.701997 -2.361850 2.412830 1.425585 1.126626 1.484268 0.292710 -8.358929 0.000000 0.000000 0.000000 -18.500681 -1.765543 -3.727334 -41.129489 1.462129 -4.291463 -71.001306 -55.145231 39.598987 0.000000 0.000000 0.000000 12.431770 9.631793 5.490818 18.083848 25.395658 0.669520 16.422279 80.745998 20.968938 0.000000 0.000000 0.000000 
-0.020460 0.942592 -0.034331 -3.087920 20.007019 5.441721 4.307044 -0.461152 -4.052523 2.354402 -0.050536 -2.511504 1.607907 7.767915 8.427822 0.000000 0.000000 0.000000 1.201472 0.932184 -9.052127 -3.489048 0.523232 1.040265 1.179774 1.070241 8.302402 0.000000 0.000000 0.000000 -1.208167 0.055295 -1.685630 -1.235194 0.687291 -2.153376 2.531607 1.845637 1.160360 1.797758 0.143199 -8.525960 0.000000 0.000000 0.000000 -18.291602 -1.534760 -3.936348 -41.219144 1.440697 -4.271277 -68.722723 -54.447788 37.301365 0.000000 0.000000 0.000000 12.508481 10.702988 6.166026 17.582537 27.694143 0.873202 6.788533 76.620404 11.848856 0.000000 0.000000 0.000000 
-0.020846 0.942923 -0.034962 -2.911989 20.611056 5.600859 4.178189 -0.481660 -4.454337 2.369467 -0.060060 -2.295858 1.280643 7.318946 8.490756 0.000000 0.000000 0.000000 0.966671 0.914379 -9.088019 -3.344523 0.499895 0.944280 0.933109 0.588208 8.419062 0.000000 0.000000 0.000000 -1.283097 0.057398 -1.840085 -1.273395 0.696433 -2.055322 2.671788 2.207049 1.284604 1.964740 0.047953 -8.382424 0.000000 0.000000 0.000000 -17.764749 -1.832282 -3.821017 -41.368857 1.572223 -4.319291 -66.690006 -53.909613 35.322807 0.000000 0.000000 0.000000 12.477925 11.337924 6.624903 17.866280 29.509357 1.129373 2.274382 73.045280 7.858647 0.000000 0.000000 0.000000 
-0.021078 0.943333 -0.035641 -2.922675 20.998368 5.637259 4.353541 -0.500763 -4.626119 2.133772 -0.045952 -2.295127 1.059364 7.038242 8.590638 0.000000 0.000000 0.000000 0.824411 0.901226 -9.085432 -3.050712 0.455257 0.847411 0.796708 0.303249 8.620918 0.000000 0.000000 0.000000 -1.249812 0.056847 -1.850039 -1.232965 0.667589 -1.913414 2.920251 2.494012 1.182308 2.173235 -0.112014 -8.128766 0.000000 0.000000 0.000000 -17.490827 -1.521721 -3.997645 -40.995053 1.653069 -4.282809 -65.326037 -53.128713 33.753884 0.000000 0.000000 0.000000 12.471604 12.080798 7.090509 18.216454 31.056819 1.402123 0.727408 69.491037 6.272795 0.000000 0.000000 0.000000 
-0.021189 0.943777 -0.036206 -2.684226 21.480290 5.697310 4.102084 -0.503138 -4.799952 2.199284 -0.053735 -2.182015 0.759214 6.659066 8.720241 0.000000 0.000000 0.000000 0.547232 0.872575 -9.038809 -2.971662 0.445420 0.846813 0.597782 -0.078496 8.714182 0.000000 0.000000 0.000000 -1.143492 0.055486 -1.860067 -1.399641 0.731658 -1.804177 3.086366 2.837837 1.370460 2.204999 -0.083462 -8.206823 0.000000 0.000000 0.000000 -17.089595 -1.605503 -3.986691 -40.803679 1.975807 -4.351173 -64.520184 -52.940791 32.914843 0.000000 0.000000 0.000000 12.739998 12.785230 7.639685 18.714530 31.737739 1.550185 -0.603604 67.180259 5.167823 0.000000 0.000000 0.000000 
-0.021235 0.944219 -0.036668 -2.566226 21.729653 5.487838 4.091497 -0.489817 -4.574219 2.015738 -0.040654 -2.237783 0.571707 6.435439 8.844296 0.000000 0.000000 0.000000 0.404309 0.832169 -8.675918 -2.919610 0.431667 0.691751 0.513327 -0.249605 8.844338 0.000000 0.000000 0.000000 -1.045936 0.054404 -1.898522 -1.452563 0.732940 -1.513614 3.287517 3.158167 1.566483 2.348273 -0.135183 -8.305904 0.000000 0.000000 0.000000 -17.039100 -1.537371 -4.092663 -39.989403 2.304146 -4.330945 -64.393303 -52.731877 32.595995 0.000000 0.000000 0.000000 13.234806 13.250893 8.086300 18.486705 32.624409 1.585783 -0.932171 64.909094 4.690230 0.000000 0.000000 0.000000 
-0.021201 0.944329 -0.037050 -2.463655 21.970369 5.416862 4.044196 -0.486731 -4.542267 1.923651 -0.036528 -2.208545 0.432430 6.236488 8.860745 0.000000 0.000000 0.000000 0.142505 0.809630 -8.678585 -2.638974 0.403717 0.921834 0.411854 -0.434811 8.806650 0.000000 0.000000 0.000000 -0.769718 0.056631 -2.112070 -1.684186 0.802395 -1.118180 3.339764 3.545361 1.649158 2.438314 -0.234397 -7.940389 0.000000 0.000000 0.000000 -16.590005 -1.574574 -4.054379 -39.710177 2.589915 -4.377807 -64.713540 -52.553377 32.483662 0.000000 0.000000 0.000000 13.507128 13.556064 8.417173 18.548331 33.178221 1.644651 -1.757975 63.322959 4.059070 0.000000 0.000000 0.000000 
-0.021085 0.944652 -0.037454 -2.424869 22.129093 5.372266 4.054718 -0.487600 -4.538985 1.824093 -0.031441 -2.197086 0.320478 6.112017 8.943947 0.000000 0.000000 0.000000 -0.130391 0.784855 -8.667112 -2.239142 0.350134 1.007102 0.366804 -0.530313 8.903622 0.000000 0.000000 0.000000 -0.510540 0.060648 -2.393165 -1.764656 0.807406 -0.754742 3.355169 3.781774 1.631026 2.522672 -0.318259 -7.713675 0.000000 0.000000 0.000000 -16.582079 -1.591385 -4.103051 -39.054515 2.945039 -4.374945 -64.853487 -52.294948 32.331997 0.000000 0.000000 0.000000 13.587416 13.755151 8.609570 18.246712 33.871352 1.668002 -2.217241 61.675385 3.638056 0.000000 0.000000 0.000000 
-0.020895 0.945016 -0.037909 -2.303050 22.275114 5.375061 3.998603 -0.478589 -4.407498 1.679094 -0.013582 -2.445890 0.176674 5.982055 9.121164 0.000000 0.000000 0.000000 -0.273166 0.770253 -8.650905 -2.234192 0.351356 1.052132 0.312405 -0.641504 8.994764 0.000000 0.000000 0.000000 -0.433484 0.063734 -2.596286 -1.891951 0.856834 -0.673843 3.474893 3.733843 1.785905 2.427526 -0.311429 -7.386616 0.000000 0.000000 0.000000 -16.225928 -1.400670 -4.085847 -38.940571 3.114228 -4.446831 -65.164026 -52.029029 32.302775 0.000000 0.000000 0.000000 13.430025 13.940877 8.678683 18.431621 34.311252 1.771571 -3.006422 60.775033 3.105076 0.000000 0.000000 0.000000 
-0.020665 0.945562 -0.038338 -2.261633 22.305093 5.389280 4.030213 -0.470558 -4.231664 1.505777 0.008635 -2.811260 0.074288 5.948980 9.377522 0.000000 0.000000 0.000000 -0.553615 0.749386 -8.702673 -1.849672 0.296905 1.108926 0.332624 -0.628842 9.178747 0.000000 0.000000 0.000000 -0.245843 0.067398 -2.804607 -2.026980 0.910377 -0.602778 3.684322 3.742584 1.760959 2.364415 -0.264668 -7.406254 0.000000 0.000000 0.000000 -15.826190 -1.196595 -4.051008 -38.897507 3.252098 -4.515474 -65.919154 -51.544503 32.376411 0.000000 0.000000 0.000000 13.138351 13.666159 8.453588 18.817897 34.907085 1.965906 -2.787261 60.102266 3.204358 0.000000 0.000000 0.000000 
